<svg id="Checked" xmlns="http://www.w3.org/2000/svg" width="57" height="57" viewBox="0 0 57 57">
  <defs>
    <style>
      .cls-1 {
        fill: #4cb32b;
        fill-rule: evenodd;
      }
    </style>
  </defs>
  <path id="Checked-2" data-name="Checked" class="cls-1" d="M296.5,600A28.5,28.5,0,1,1,268,628.5,28.5,28.5,0,0,1,296.5,600Zm14.347,20.321-18.72,18.712a1.88,1.88,0,0,1-.276.364l-0.666.681a0.851,0.851,0,0,1-.968.372l-9.023-8.732a0.889,0.889,0,0,1,.365-0.988l0.667-.68a0.852,0.852,0,0,1,.968-0.373l7.326,6.921,18.327-18.318a0.929,0.929,0,0,1,1.333,0l0.667,0.68A0.977,0.977,0,0,1,310.846,620.319Z" transform="translate(-268 -600)"/>
</svg>
